{
	"asset":{
		"generator":"Khronos glTF Blender I/O v3.5.30",
		"version":"2.0"
	},
	"scene":0,
	"scenes":[
		{
			"name":"Scene",
			"nodes":[
				0,
				1
			]
		}
	],
	"nodes":[
		{
			"mesh":0,
			"name":"Cube.017",
			"rotation":[
				0,
				0.5995115041732788,
				0,
				0.8003661632537842
			],
			"translation":[
				-81.1995849609375,
				1.5468543767929077,
				19.740249633789062
			]
		},
		{
			"mesh":1,
			"name":"Text.008",
			"rotation":[
				0.5659443140029907,
				0.4239186644554138,
				-0.4239186644554138,
				0.5659443140029907
			],
			"translation":[
				-81.16445922851562,
				3.2339558601379395,
				19.73040008544922
			]
		}
	],
	"materials":[
		{
			"doubleSided":true,
			"name":"Sber_Dark",
			"pbrMetallicRoughness":{
				"baseColorFactor":[
					0.05003175511956215,
					0.20190127193927765,
					0.07265323400497437,
					1
				],
				"metallicFactor":0,
				"roughnessFactor":0.5
			}
		},
		{
			"doubleSided":true,
			"name":"Sber_Light",
			"pbrMetallicRoughness":{
				"baseColorFactor":[
					0.1684504598379135,
					0.5596008896827698,
					0.15295173227787018,
					1
				],
				"metallicFactor":0,
				"roughnessFactor":0.5
			}
		}
	],
	"meshes":[
		{
			"name":"Cube.019",
			"primitives":[
				{
					"attributes":{
						"POSITION":0,
						"TEXCOORD_0":1,
						"NORMAL":2
					},
					"indices":3,
					"material":0
				}
			]
		},
		{
			"name":"Text.008",
			"primitives":[
				{
					"attributes":{
						"POSITION":4,
						"NORMAL":5
					},
					"indices":6,
					"material":1
				}
			]
		}
	],
	"accessors":[
		{
			"bufferView":0,
			"componentType":5126,
			"count":24,
			"max":[
				1,
				1,
				1
			],
			"min":[
				-1,
				-1,
				-1
			],
			"type":"VEC3"
		},
		{
			"bufferView":1,
			"componentType":5126,
			"count":24,
			"type":"VEC2"
		},
		{
			"bufferView":2,
			"componentType":5126,
			"count":24,
			"type":"VEC3"
		},
		{
			"bufferView":3,
			"componentType":5123,
			"count":36,
			"type":"SCALAR"
		},
		{
			"bufferView":4,
			"componentType":5126,
			"count":17548,
			"max":[
				1.3873635530471802,
				0.11999940872192383,
				0.41364002227783203
			],
			"min":[
				-1.3906506299972534,
				-0.1200023889541626,
				-0.289584755897522
			],
			"type":"VEC3"
		},
		{
			"bufferView":5,
			"componentType":5126,
			"count":17548,
			"type":"VEC3"
		},
		{
			"bufferView":6,
			"componentType":5123,
			"count":54612,
			"type":"SCALAR"
		}
	],
	"bufferViews":[
		{
			"buffer":0,
			"byteLength":288,
			"byteOffset":0,
			"target":34962
		},
		{
			"buffer":0,
			"byteLength":192,
			"byteOffset":288,
			"target":34962
		},
		{
			"buffer":0,
			"byteLength":288,
			"byteOffset":480,
			"target":34962
		},
		{
			"buffer":0,
			"byteLength":72,
			"byteOffset":768,
			"target":34963
		},
		{
			"buffer":0,
			"byteLength":210576,
			"byteOffset":840,
			"target":34962
		},
		{
			"buffer":0,
			"byteLength":210576,
			"byteOffset":211416,
			"target":34962
		},
		{
			"buffer":0,
			"byteLength":109224,
			"byteOffset":421992,
			"target":34963
		}
	],
	"buffers":[
		{
			"byteLength":531216,
			"uri":"data:application/octet-stream;base64,"
		}
	]
}
